HIERARCHY
ROOT Hips
{
	OFFSET 0.00 0.00 0.00
	CHANNELS 6 Xposition Yposition Zposition Xrotation Yrotation Zrotation
	JOINT LeftUpLeg
	{
		OFFSET 4.29448 0.00000 0.00000
		CHANNELS 3 Xrotation Yrotation Zrotation
		JOINT LeftLeg
		{
			OFFSET 0.00000 -19.20276 0.00000
			CHANNELS 3 Xrotation Yrotation Zrotation
			JOINT LeftFoot
			{
				OFFSET -0.02174 -15.68217 -0.01872
				CHANNELS 3 Xrotation Yrotation Zrotation
				JOINT LeftToeBase
				{
					OFFSET 0.04083 -0.34615 6.18044
					CHANNELS 3 Xrotation Yrotation Zrotation
					End Site
					{
						OFFSET 0.01735 0.60354 2.89036
					}
				}
			}
		}
	}
	JOINT RightUpLeg
	{
		OFFSET -4.29448 0.00000 0.00000
		CHANNELS 3 Xrotation Yrotation Zrotation
		JOINT RightLeg
		{
			OFFSET -0.00000 -19.20276 0.46564
			CHANNELS 3 Xrotation Yrotation Zrotation
			JOINT RightFoot
			{
				OFFSET 0.03510 -15.68217 0.03397
				CHANNELS 3 Xrotation Yrotation Zrotation
				JOINT RightToeBase
				{
					OFFSET -0.09359 -0.35473 6.17938
					CHANNELS 3 Xrotation Yrotation Zrotation
					End Site
					{
						OFFSET -0.06574 -1.30919 2.64583
					}
				}
			}
		}
	}
	JOINT Spine
	{
		OFFSET 0.00000 0.03937 0.00000
		CHANNELS 3 Xrotation Yrotation Zrotation
		JOINT Spine1
		{
			OFFSET 0.00000 8.13660 0.00000
			CHANNELS 3 Xrotation Yrotation Zrotation
			JOINT Neck
			{
				OFFSET -0.08254 7.72853 -1.10446
				CHANNELS 3 Xrotation Yrotation Zrotation
				JOINT Head
				{
					OFFSET 0.00000 7.64180 0.00000
					CHANNELS 3 Xrotation Yrotation Zrotation
					End Site
					{
						OFFSET 0.00000 4.52755 0.00000
					}
				}
			}
			JOINT LeftShoulder
			{
				OFFSET -0.08254 7.72853 -1.10446
				CHANNELS 3 Xrotation Yrotation Zrotation
				JOINT LeftArm
				{
					OFFSET 7.63573 -0.00003 0.00000
					CHANNELS 3 Xrotation Yrotation Zrotation
					JOINT LeftForeArm
					{
						OFFSET 10.94210 -0.00004 0.00000
						CHANNELS 3 Xrotation Yrotation Zrotation
						JOINT LeftHand
						{
							OFFSET 9.96262 -0.00004 0.00000
							CHANNELS 3 Xrotation Yrotation Zrotation
							JOINT LeftHandThumb
							{
								OFFSET 0.00000 0.00000 0.00000
								CHANNELS 3 Xrotation Yrotation Zrotation
								End Site
								{
									OFFSET 0.00000 0.00000 3.93700
								}
							}
							JOINT L_Wrist_End
							{
								OFFSET 3.93700 -0.00001 0.00000
								CHANNELS 3 Xrotation Yrotation Zrotation
							}
						}
					}
				}
			}
			JOINT RightShoulder
			{
				OFFSET -0.08254 7.72853 -1.10446
				CHANNELS 3 Xrotation Yrotation Zrotation
				JOINT RightArm
				{
					OFFSET -7.63573 -0.00003 0.00000
					CHANNELS 3 Xrotation Yrotation Zrotation
					JOINT RightForeArm
					{
						OFFSET -10.94210 -0.00004 0.00000
						CHANNELS 3 Xrotation Yrotation Zrotation
						JOINT RightHand
						{
							OFFSET -9.96262 -0.00004 0.00000
							CHANNELS 3 Xrotation Yrotation Zrotation
							JOINT RightHandThumb
							{
								OFFSET 0.00000 0.00000 0.00000
								CHANNELS 3 Xrotation Yrotation Zrotation
								End Site
								{
									OFFSET 0.00000 0.00000 3.93700
								}
							}
							JOINT R_Wrist_End
							{
								OFFSET -5.39369 -0.00002 0.00000
								CHANNELS 3 Xrotation Yrotation Zrotation
							}
						}
					}
				}
			}
		}
	}
}
MOTION
Frames: 18
Frame Time: 0.008333
 41.7088 -86.7570 35.8907 -98.5244 5.2657 179.0058 -5.2124 -5.4970 0.8929 11.3894 -0.0000 0.0000 -15.0617 7.1749 -9.6442 22.2286 0.0218 -0.1501 -2.3505 9.1761 -3.5165 9.0223 -0.0000 0.0000 -7.6853 -8.0812 7.9530 -30.7424 0.7614 -0.2277 -9.3316 2.0609 -3.9726 3.1277 1.0371 1.4809 21.0367 3.9694 -2.3155 -18.9990 3.7503 1.4353 -17.3043 3.1008 -1.9267 10.8395 8.7028 -73.7561 -0.0000 -4.7986 -0.0000 -7.3081 8.7565 -4.6063 -0.0000 0.0000 -0.0000 -0.0000 0.0000 -0.0000 -12.5513 1.5325 6.1273 8.3639 -5.1212 73.4300 -0.0000 10.2265 0.0000 0.8059 2.8238 15.3390 -0.0000 0.0000 -0.0000 -0.0000 0.0000 -0.0000
 41.6708 -86.7155 35.8762 -98.5383 5.3746 178.9600 -5.4494 -5.4066 0.8560 12.0382 -0.0000 0.0000 -15.3978 7.1992 -9.7700 21.9809 0.0219 -0.1484 -2.5217 9.2225 -3.5039 9.4674 -0.0000 0.0000 -7.8659 -8.0278 7.9865 -30.9558 0.7670 -0.2278 -9.2258 2.1358 -3.9414 3.1137 1.1361 1.5116 20.9815 3.9406 -2.3392 -19.0779 3.6747 1.4593 -17.2664 3.0403 -1.9782 10.8505 8.9784 -73.5535 -0.0000 -4.5348 -0.0000 -7.4070 8.7292 -4.4524 -0.0000 0.0000 -0.0000 -0.0000 0.0000 -0.0000 -12.5568 1.6295 6.1285 8.3760 -5.1855 73.3733 -0.0000 10.2761 0.0000 0.5982 2.8758 15.3317 -0.0000 0.0000 -0.0000 -0.0000 0.0000 -0.0000
 41.6311 -86.6745 35.8612 -98.5914 5.5130 178.9204 -5.6858 -5.3439 0.8186 12.6052 -0.0000 0.0000 -15.7144 7.2465 -9.6068 22.3458 0.0218 -0.1509 -2.7444 9.3879 -3.4917 9.9456 -0.0000 0.0000 -8.0690 -8.0419 7.9644 -30.9598 0.7671 -0.2278 -9.0994 2.1854 -3.9249 2.9984 1.2187 1.5546 20.9265 3.9455 -2.3611 -19.0905 3.6661 1.4768 -17.2757 3.1165 -1.9479 10.8430 9.3621 -73.4105 -0.0000 -4.1753 -0.0000 -7.5979 8.8609 -4.4533 -0.0000 0.0000 -0.0000 -0.0000 0.0000 -0.0000 -12.5680 1.6469 6.1236 8.3264 -5.1241 73.3041 -0.0000 10.1594 0.0000 0.4175 2.8497 15.3694 -0.0000 0.0000 -0.0000 -0.0000 0.0000 -0.0000
 41.5897 -86.6299 35.8452 -98.6566 5.6580 178.8910 -5.9009 -5.1750 0.7805 13.1153 -0.0000 0.0000 -16.0251 7.2274 -9.7092 22.4004 0.0217 -0.1513 -2.9774 9.5800 -3.4895 10.4408 -0.0000 0.0000 -8.2705 -8.0797 8.0215 -31.0867 0.7704 -0.2279 -8.9856 2.2572 -3.9179 2.8663 1.3228 1.6009 20.8893 3.9128 -2.3519 -19.1130 3.6548 1.4774 -17.2707 3.1033 -1.9492 10.9091 9.7296 -73.2513 -0.0000 -3.8642 -0.0000 -7.5484 8.8359 -4.3446 -0.0000 0.0000 -0.0000 -0.0000 0.0000 -0.0000 -12.5751 1.6941 6.1364 8.3160 -5.1800 73.2143 -0.0000 10.1446 0.0000 0.7231 2.8491 15.3508 -0.0000 0.0000 -0.0000 -0.0000 0.0000 -0.0000
 41.5491 -86.5831 35.8281 -98.7239 5.8017 178.8721 -6.0891 -5.0054 0.7392 13.5681 -0.0000 0.0000 -16.3348 7.1953 -9.8154 22.5758 0.0217 -0.1525 -3.2215 9.6907 -3.4896 10.9485 -0.0000 0.0000 -8.4918 -8.0777 8.1062 -31.2045 0.7735 -0.2279 -8.8897 2.3152 -3.9378 2.7408 1.4142 1.6528 20.8535 3.8951 -2.3312 -19.0969 3.6693 1.4775 -17.2646 3.1417 -1.9034 10.9060 10.0988 -73.1187 -0.0000 -3.4460 -0.0000 -7.2166 8.8053 -3.8475 -0.0000 0.0000 -0.0000 -0.0000 0.0000 -0.0000 -12.5626 1.6961 6.1550 8.2776 -5.1267 73.1207 -0.0000 10.1032 0.0000 0.5194 2.8304 15.3938 -0.0000 0.0000 -0.0000 -0.0000 0.0000 -0.0000
 41.5063 -86.5353 35.8102 -98.7977 5.9464 178.8579 -6.2619 -4.8375 0.6955 13.9835 -0.0000 0.0000 -16.6119 7.1672 -9.9456 22.4910 0.0217 -0.1519 -3.4782 9.8884 -3.4962 11.4939 -0.0000 0.0000 -8.7183 -8.1304 8.1364 -31.3674 0.7777 -0.2280 -8.7926 2.3635 -3.9532 2.6134 1.4933 1.7063 20.8240 3.9213 -2.3361 -19.1085 3.6807 1.4807 -17.2424 3.1407 -1.8768 11.0048 10.4451 -72.9821 -0.0000 -3.1534 -0.0000 -7.2999 8.9534 -3.8433 -0.0000 0.0000 -0.0000 -0.0000 0.0000 -0.0000 -12.5715 1.7396 6.1616 8.2480 -5.1070 73.0388 -0.0000 10.0718 0.0000 0.2031 2.8358 15.3546 -0.0000 0.0000 -0.0000 -0.0000 0.0000 -0.0000
 41.4629 -86.4844 35.7914 -98.8677 6.0736 178.8557 -6.4170 -4.7043 0.6403 14.3747 -0.0000 0.0000 -16.8910 7.1345 -10.0591 22.5309 0.0217 -0.1522 -3.7278 10.0070 -3.5153 12.0392 -0.0000 0.0000 -8.9561 -8.1361 8.1706 -31.4778 0.7806 -0.2280 -8.6980 2.4042 -3.9914 2.4859 1.5664 1.7560 20.7795 3.9206 -2.3201 -19.0816 3.6886 1.5000 -17.2235 3.1752 -1.8325 11.0578 10.7576 -72.8522 -0.0000 -2.7529 -0.0000 -7.2716 9.0906 -3.4854 -0.0000 0.0000 -0.0000 -0.0000 0.0000 -0.0000 -12.5721 1.7419 6.1763 8.2421 -5.0751 72.9513 -0.0000 10.1489 0.0000 0.4115 2.6887 15.3609 -0.0000 0.0000 -0.0000 -0.0000 0.0000 -0.0000
 41.4180 -86.4307 35.7707 -98.9324 6.2229 178.8623 -6.5512 -4.5593 0.5767 14.7464 -0.0000 0.0000 -17.1743 7.0938 -10.1528 22.5183 0.0217 -0.1521 -3.9748 10.1736 -3.5422 12.5975 -0.0000 0.0000 -9.2052 -8.1674 8.1768 -31.6241 0.7845 -0.2280 -8.6030 2.4207 -4.0358 2.3661 1.6143 1.8085 20.7419 3.9680 -2.3186 -19.1006 3.7286 1.5148 -17.1792 3.2216 -1.7705 11.1268 11.1082 -72.7285 -0.0000 -2.4051 -0.0000 -7.1676 9.2037 -3.4249 -0.0000 0.0000 -0.0000 -0.0000 0.0000 -0.0000 -12.6179 1.7810 6.1873 8.1673 -5.1059 72.8766 -0.0000 10.0486 0.0000 0.5340 2.7768 15.3591 -0.0000 0.0000 -0.0000 -0.0000 0.0000 -0.0000
 41.3709 -86.3752 35.7490 -98.9915 6.3309 178.8726 -6.6908 -4.4400 0.5082 15.1350 -0.0000 0.0000 -17.4437 7.0328 -10.2411 22.5753 0.0217 -0.1525 -4.2313 10.3177 -3.5735 13.2183 -0.0000 0.0000 -9.4698 -8.2068 8.1679 -31.7709 0.7883 -0.2281 -8.5096 2.4384 -4.0885 2.2489 1.6629 1.8583 20.7036 3.9686 -2.2994 -19.1068 3.7406 1.5274 -17.1460 3.2167 -1.7199 11.2102 11.4315 -72.6057 -0.0000 -2.0240 -0.0000 -7.1548 9.4307 -3.2399 -0.0000 0.0000 -0.0000 -0.0000 0.0000 -0.0000 -12.6288 1.8016 6.1961 8.1152 -5.1929 72.8041 -0.0000 10.0773 0.0000 0.5432 2.8351 15.3883 -0.0000 0.0000 -0.0000 -0.0000 0.0000 -0.0000
 41.3197 -86.3148 35.7252 -99.0517 6.4610 178.9154 -6.8174 -4.3759 0.4029 15.5043 -0.0000 0.0000 -17.7125 7.0266 -10.3727 22.7203 0.0216 -0.1535 -4.4614 10.4903 -3.6418 13.7941 -0.0000 0.0000 -9.7713 -8.2997 8.2883 -31.8231 0.7897 -0.2281 -8.4235 2.4326 -4.1512 2.1254 1.6863 1.8953 20.6916 4.0359 -2.3055 -19.1279 3.7924 1.5344 -17.1135 3.2417 -1.6477 11.3460 11.8649 -72.5072 -0.0000 -1.7128 -0.0000 -7.3363 9.6063 -3.4493 -0.0000 0.0000 -0.0000 -0.0000 0.0000 -0.0000 -12.6488 1.8681 6.1846 8.1122 -5.1307 72.7601 -0.0000 10.1504 0.0000 0.5693 2.7903 15.2512 -0.0000 0.0000 -0.0000 -0.0000 0.0000 -0.0000
 41.2679 -86.2544 35.6996 -99.1165 6.5455 178.9426 -6.9496 -4.2930 0.3098 15.8839 -0.0000 0.0000 -17.9906 6.9811 -10.5231 22.6837 0.0216 -0.1532 -4.6988 10.5988 -3.7010 14.3978 -0.0000 0.0000 -10.0548 -8.3476 8.3473 -31.9777 0.7937 -0.2281 -8.3412 2.4354 -4.2147 1.9935 1.7170 1.9352 20.6614 4.0290 -2.2711 -19.0892 3.8065 1.5558 -17.0725 3.2364 -1.5840 11.4699 12.1494 -72.4005 -0.0000 -1.3499 -0.0000 -7.1682 9.7879 -3.1748 -0.0000 0.0000 -0.0000 -0.0000 0.0000 -0.0000 -12.6502 1.8412 6.1584 8.0377 -5.1798 72.7191 -0.0000 10.1840 0.0000 0.4460 2.8134 15.2730 -0.0000 0.0000 -0.0000 -0.0000 0.0000 -0.0000
 41.2152 -86.1919 35.6733 -99.1692 6.5979 178.9924 -7.0877 -4.2460 0.1892 16.2911 -0.0000 0.0000 -18.2790 6.9172 -10.6302 22.8977 0.0215 -0.1547 -4.9112 10.7497 -3.7866 15.0109 -0.0000 0.0000 -10.3744 -8.4284 8.3690 -32.1111 0.7972 -0.2281 -8.2723 2.4121 -4.2833 1.9168 1.7170 1.9488 20.6127 4.0602 -2.2539 -19.0685 3.8263 1.5861 -17.0054 3.2302 -1.5339 11.5824 12.3769 -72.2744 -0.0000 -0.9935 -0.0000 -7.2607 9.8993 -3.3590 -0.0000 0.0000 -0.0000 -0.0000 0.0000 -0.0000 -12.6305 1.8934 6.1576 8.0103 -5.2429 72.6770 -0.0000 10.3982 0.0000 0.4047 2.7238 15.3078 -0.0000 0.0000 -0.0000 -0.0000 0.0000 -0.0000
 41.1597 -86.1274 35.6453 -99.2261 6.6540 179.0330 -7.2068 -4.1448 0.0731 16.6651 -0.0000 0.0000 -18.5755 6.8398 -10.7256 23.0649 0.0215 -0.1558 -5.1464 10.8392 -3.8682 15.6734 -0.0000 0.0000 -10.7017 -8.4929 8.3777 -32.1756 0.7989 -0.2281 -8.2107 2.3878 -4.3451 1.8394 1.7134 1.9705 20.5721 4.0925 -2.2380 -19.0676 3.8519 1.6203 -16.9521 3.2538 -1.4653 11.7051 12.6332 -72.1798 -0.0000 -0.6786 -0.0000 -7.2366 10.2275 -3.3428 -0.0000 0.0000 -0.0000 -0.0000 0.0000 -0.0000 -12.6444 1.8813 6.1456 7.9613 -5.2386 72.6328 -0.0000 10.5218 0.0000 0.6103 2.7383 15.2308 -0.0000 0.0000 -0.0000 -0.0000 0.0000 -0.0000
 41.1021 -86.0597 35.6140 -99.2839 6.6698 179.0797 -7.3351 -4.0381 -0.0573 17.0562 -0.0000 0.0000 -18.9051 6.7613 -10.8079 23.4518 0.0213 -0.1585 -5.3685 10.8589 -3.9684 16.3148 -0.0000 0.0000 -11.0495 -8.4712 8.4562 -32.2034 0.7996 -0.2281 -8.1526 2.3509 -4.4029 1.7697 1.6941 1.9794 20.4867 4.1158 -2.2138 -18.9908 3.8701 1.6607 -16.8998 3.2351 -1.4050 11.8360 12.8998 -72.0835 -0.0000 -0.3578 -0.0000 -6.9891 10.5532 -3.2324 -0.0000 0.0000 -0.0000 -0.0000 0.0000 -0.0000 -12.6333 1.8695 6.1082 7.8970 -5.3258 72.6077 -0.0000 10.7078 0.0000 1.0173 2.9417 15.2817 -0.0000 0.0000 -0.0000 -0.0000 0.0000 -0.0000
 41.0425 -85.9880 35.5839 -99.3231 6.6652 179.1305 -7.4370 -3.9519 -0.1907 17.4413 -0.0000 0.0000 -19.1537 6.6205 -11.0535 22.9895 0.0215 -0.1553 -5.5648 10.8915 -4.0777 16.9839 -0.0000 0.0000 -11.3586 -8.5521 8.5958 -32.3823 0.8043 -0.2280 -8.1050 2.3032 -4.4584 1.7190 1.6610 1.9795 20.4787 4.1117 -2.1962 -19.0133 3.8638 1.6750 -16.8556 3.2077 -1.3714 11.9917 13.0952 -71.9563 0.0000 0.0150 -0.0000 -6.7899 10.4499 -3.3690 -0.0000 0.0000 -0.0000 -0.0000 0.0000 -0.0000 -12.6322 1.8810 6.0973 7.9073 -5.3393 72.5771 -0.0000 11.0042 0.0000 0.6422 2.7579 15.1671 -0.0000 0.0000 -0.0000 -0.0000 0.0000 -0.0000
 40.9804 -85.9152 35.5513 -99.3559 6.6414 179.1835 -7.5426 -3.8711 -0.3318 17.8342 -0.0000 0.0000 -19.4400 6.4555 -11.2267 22.9351 0.0215 -0.1550 -5.7598 10.8614 -4.2063 17.6654 -0.0000 0.0000 -11.6833 -8.5238 8.6692 -32.4978 0.8073 -0.2280 -8.0503 2.2354 -4.5152 1.6919 1.6083 1.9814 20.4127 4.1395 -2.1852 -18.9940 3.8744 1.6960 -16.8138 3.2282 -1.3268 12.1276 13.2791 -71.8511 0.0000 0.3117 -0.0000 -6.7728 10.7398 -3.3917 -0.0000 0.0000 -0.0000 -0.0000 0.0000 -0.0000 -12.6403 1.8849 6.0821 7.8639 -5.4065 72.5419 -0.0000 11.2355 0.0000 0.5743 2.8614 15.1289 -0.0000 0.0000 -0.0000 -0.0000 0.0000 -0.0000
 40.9157 -85.8394 35.5175 -99.3902 6.6077 179.2552 -7.6465 -3.7558 -0.4983 18.2304 -0.0000 0.0000 -19.7106 6.2796 -11.3582 22.8745 0.0215 -0.1545 -5.9162 10.8128 -4.3574 18.2752 -0.0000 0.0000 -11.9882 -8.5507 8.8506 -32.6308 0.8108 -0.2280 -8.0104 2.1816 -4.5824 1.6604 1.5684 1.9723 20.3817 4.1186 -2.1410 -18.9816 3.8869 1.6856 -16.7604 3.2207 -1.2940 12.2361 13.4389 -71.7333 0.0000 0.6767 -0.0000 -6.7286 10.8522 -3.6439 -0.0000 0.0000 -0.0000 -0.0000 0.0000 -0.0000 -12.6325 1.8455 6.0605 7.8505 -5.4398 72.5054 -0.0000 11.5557 0.0000 0.6314 2.8458 15.1558 -0.0000 0.0000 -0.0000 -0.0000 0.0000 -0.0000
 40.8506 -85.7595 35.4839 -99.4175 6.5560 179.3151 -7.7351 -3.6372 -0.6554 18.6172 -0.0000 0.0000 -19.9718 6.0946 -11.5490 22.8823 0.0215 -0.1546 -6.0549 10.7605 -4.5039 18.8810 -0.0000 0.0000 -12.2797 -8.5623 9.0150 -32.7394 0.8136 -0.2279 -7.9665 2.1060 -4.6345 1.6357 1.5044 1.9642 20.3351 4.1354 -2.1345 -18.9593 3.8749 1.7041 -16.7059 3.2479 -1.2843 12.3521 13.5282 -71.5957 0.0000 1.0363 -0.0000 -6.6376 11.1704 -3.6522 -0.0000 0.0000 -0.0000 -0.0000 0.0000 -0.0000 -12.6322 1.8223 6.0491 7.8492 -5.4656 72.4636 -0.0000 11.8689 0.0000 0.5963 2.9388 15.0916 -0.0000 0.0000 -0.0000 -0.0000 0.0000 -0.0000
